<svg width="24" height="24" viewBox="0 0 24 24" fill="none" xmlns="http://www.w3.org/2000/svg">
<mask id="path-1-inside-1_60_4352" fill="white">
<path fill-rule="evenodd" clip-rule="evenodd" d="M5.84023 9.85637C7.62754 13.7483 10.808 16.8424 14.7618 18.519L14.7743 18.5243L15.5381 18.8648C16.5107 19.2981 17.6539 18.9903 18.2776 18.1273L19.5519 16.3635C19.6298 16.2558 19.6097 16.106 19.5063 16.0225L17.2815 14.2277C17.1709 14.1385 17.0083 14.1593 16.9237 14.2734L16.0578 15.4418C15.8475 15.7256 15.4678 15.8242 15.146 15.6786C12.1896 14.3406 9.81391 11.9649 8.47598 9.00852C8.33037 8.68676 8.42896 8.30701 8.71272 8.09673L9.88109 7.23087C9.99526 7.14626 10.016 6.98363 9.92682 6.87304L8.13178 4.64799C8.04835 4.54458 7.8986 4.52449 7.79087 4.60227L6.01758 5.88242C5.14879 6.50961 4.84283 7.66246 5.28629 8.63791L5.83963 9.85507C5.83983 9.8555 5.84003 9.85594 5.84023 9.85637ZM14.1699 19.8973C9.87386 18.0737 6.4185 14.7107 4.47645 10.481L4.47528 10.4784L3.92078 9.2587C3.18168 7.63295 3.69161 5.71154 5.13959 4.66622L6.91288 3.38607C7.667 2.84166 8.71523 2.98226 9.29923 3.70616L11.0943 5.9312C11.7188 6.70537 11.5734 7.84377 10.7742 8.43601L10.1047 8.93216C11.2356 11.1266 13.028 12.9189 15.2224 14.0499L15.7185 13.3803C16.3108 12.5812 17.4492 12.4357 18.2234 13.0603L20.4481 14.8551C21.1722 15.4392 21.3126 16.4879 20.7678 17.242L19.4934 19.0057C18.454 20.4442 16.5487 20.9572 14.9276 20.2349L14.1699 19.8973Z"/>
</mask>
<path fill-rule="evenodd" clip-rule="evenodd" d="M5.84023 9.85637C7.62754 13.7483 10.808 16.8424 14.7618 18.519L14.7743 18.5243L15.5381 18.8648C16.5107 19.2981 17.6539 18.9903 18.2776 18.1273L19.5519 16.3635C19.6298 16.2558 19.6097 16.106 19.5063 16.0225L17.2815 14.2277C17.1709 14.1385 17.0083 14.1593 16.9237 14.2734L16.0578 15.4418C15.8475 15.7256 15.4678 15.8242 15.146 15.6786C12.1896 14.3406 9.81391 11.9649 8.47598 9.00852C8.33037 8.68676 8.42896 8.30701 8.71272 8.09673L9.88109 7.23087C9.99526 7.14626 10.016 6.98363 9.92682 6.87304L8.13178 4.64799C8.04835 4.54458 7.8986 4.52449 7.79087 4.60227L6.01758 5.88242C5.14879 6.50961 4.84283 7.66246 5.28629 8.63791L5.83963 9.85507C5.83983 9.8555 5.84003 9.85594 5.84023 9.85637ZM14.1699 19.8973C9.87386 18.0737 6.4185 14.7107 4.47645 10.481L4.47528 10.4784L3.92078 9.2587C3.18168 7.63295 3.69161 5.71154 5.13959 4.66622L6.91288 3.38607C7.667 2.84166 8.71523 2.98226 9.29923 3.70616L11.0943 5.9312C11.7188 6.70537 11.5734 7.84377 10.7742 8.43601L10.1047 8.93216C11.2356 11.1266 13.028 12.9189 15.2224 14.0499L15.7185 13.3803C16.3108 12.5812 17.4492 12.4357 18.2234 13.0603L20.4481 14.8551C21.1722 15.4392 21.3126 16.4879 20.7678 17.242L19.4934 19.0057C18.454 20.4442 16.5487 20.9572 14.9276 20.2349L14.1699 19.8973Z" fill="black"/>
<path d="M14.7618 18.519L15.1522 17.5984L15.1522 17.5984L14.7618 18.519ZM5.84023 9.85637L6.74898 9.43903L6.74894 9.43895L5.84023 9.85637ZM14.7743 18.5243L15.1814 17.6109C15.1758 17.6085 15.1703 17.6061 15.1647 17.6037L14.7743 18.5243ZM15.5381 18.8648L15.131 19.7781L15.1311 19.7782L15.5381 18.8648ZM18.2776 18.1273L19.0881 18.7129L18.2776 18.1273ZM19.5519 16.3635L18.7414 15.7779H18.7414L19.5519 16.3635ZM19.5063 16.0225L18.8784 16.8008V16.8008L19.5063 16.0225ZM17.2815 14.2277L17.9094 13.4494L17.9094 13.4494L17.2815 14.2277ZM16.9237 14.2734L17.7271 14.8688L17.7271 14.8688L16.9237 14.2734ZM16.0578 15.4418L16.8612 16.0372L16.8612 16.0372L16.0578 15.4418ZM15.146 15.6786L14.7337 16.5896H14.7337L15.146 15.6786ZM8.47598 9.00852L7.56493 9.42082L7.56493 9.42082L8.47598 9.00852ZM8.71272 8.09673L9.30812 8.90016L9.30812 8.90015L8.71272 8.09673ZM9.88109 7.23087L9.28569 6.42744L9.28569 6.42744L9.88109 7.23087ZM9.92682 6.87304L10.7051 6.24515L10.7051 6.24515L9.92682 6.87304ZM8.13178 4.64799L7.35347 5.27588L7.35347 5.27588L8.13178 4.64799ZM7.79087 4.60227L8.37619 5.41306L8.3762 5.41306L7.79087 4.60227ZM6.01758 5.88242L5.43225 5.07162L5.43225 5.07162L6.01758 5.88242ZM5.28629 8.63791L6.19663 8.22405L6.19663 8.22405L5.28629 8.63791ZM5.83963 9.85507L4.92928 10.2689L4.93092 10.2725L5.83963 9.85507ZM4.47645 10.481L3.56763 10.8981L3.56766 10.8982L4.47645 10.481ZM14.1699 19.8973L14.5769 18.9839C14.5715 18.9815 14.5661 18.9791 14.5606 18.9768L14.1699 19.8973ZM4.47528 10.4784L3.56493 10.8923L3.56646 10.8956L4.47528 10.4784ZM3.92078 9.2587L4.83112 8.84484L4.83112 8.84484L3.92078 9.2587ZM5.13959 4.66622L4.55427 3.85543L4.55427 3.85543L5.13959 4.66622ZM6.91288 3.38607L6.32756 2.57527L6.32756 2.57527L6.91288 3.38607ZM9.29923 3.70616L8.52093 4.33405V4.33405L9.29923 3.70616ZM11.0943 5.9312L11.8726 5.30331L11.0943 5.9312ZM10.7742 8.43601L11.3696 9.23943H11.3696L10.7742 8.43601ZM10.1047 8.93216L9.50929 8.12873C9.11556 8.42052 8.9913 8.95465 9.2158 9.39027L10.1047 8.93216ZM15.2224 14.0499L14.7643 14.9388C15.1999 15.1633 15.734 15.039 16.0258 14.6453L15.2224 14.0499ZM15.7185 13.3803L16.522 13.9757L16.522 13.9757L15.7185 13.3803ZM18.2234 13.0603L17.5955 13.8386H17.5955L18.2234 13.0603ZM20.4481 14.8551L21.076 14.0768L20.4481 14.8551ZM20.7678 17.242L21.5783 17.8277L20.7678 17.242ZM19.4934 19.0057L18.6828 18.4201H18.6828L19.4934 19.0057ZM14.9276 20.2349L14.5207 21.1484L14.9276 20.2349ZM15.1522 17.5984C11.4282 16.0192 8.43243 13.1047 6.74898 9.43903L4.93148 10.2737C6.82266 14.3918 10.1878 17.6656 14.3714 19.4397L15.1522 17.5984ZM15.1647 17.6037L15.1522 17.5984L14.3714 19.4396L14.3838 19.4449L15.1647 17.6037ZM15.9452 17.9514L15.1814 17.6109L14.3672 19.4377L15.131 19.7781L15.9452 17.9514ZM17.467 17.5416C17.1205 18.0211 16.4854 18.1921 15.9451 17.9513L15.1311 19.7782C16.536 20.4041 18.1873 19.9596 19.0881 18.7129L17.467 17.5416ZM18.7414 15.7779L17.467 17.5416L19.0881 18.7129L20.3625 16.9492L18.7414 15.7779ZM18.8784 16.8008C18.568 16.5505 18.5078 16.101 18.7414 15.7779L20.3625 16.9492C20.7517 16.4105 20.6514 15.6615 20.1341 15.2442L18.8784 16.8008ZM16.6536 15.006L18.8784 16.8008L20.1341 15.2442L17.9094 13.4494L16.6536 15.006ZM17.7271 14.8688C17.4733 15.2113 16.9854 15.2737 16.6536 15.006L17.9094 13.4494C17.3564 13.0033 16.5433 13.1072 16.1203 13.678L17.7271 14.8688ZM16.8612 16.0372L17.7271 14.8688L16.1203 13.678L15.2544 14.8464L16.8612 16.0372ZM14.7337 16.5896C15.4845 16.9294 16.3706 16.6993 16.8612 16.0372L15.2544 14.8464C15.3245 14.7518 15.4511 14.719 15.5583 14.7675L14.7337 16.5896ZM7.56493 9.42082C9.00302 12.5985 11.556 15.1515 14.7337 16.5896L15.5583 14.7675C12.8232 13.5297 10.6248 11.3313 9.38703 8.59622L7.56493 9.42082ZM8.11731 7.2933C7.45522 7.78396 7.22517 8.67005 7.56493 9.42082L9.38703 8.59622C9.43557 8.70347 9.4027 8.83006 9.30812 8.90016L8.11731 7.2933ZM9.28569 6.42744L8.11731 7.2933L9.30812 8.90015L10.4765 8.03429L9.28569 6.42744ZM9.14851 7.50093C8.88085 7.16914 8.94319 6.68126 9.28569 6.42744L10.4765 8.0343C11.0473 7.61126 11.1512 6.79812 10.7051 6.24515L9.14851 7.50093ZM7.35347 5.27588L9.14852 7.50093L10.7051 6.24515L8.91008 4.0201L7.35347 5.27588ZM8.3762 5.41306C8.053 5.64639 7.60375 5.58612 7.35347 5.27588L8.91008 4.0201C8.49294 3.50304 7.7442 3.4026 7.20554 3.79147L8.3762 5.41306ZM6.6029 6.69322L8.37619 5.41306L7.20555 3.79147L5.43225 5.07162L6.6029 6.69322ZM6.19663 8.22405C5.95026 7.68213 6.12024 7.04166 6.6029 6.69322L5.43225 5.07162C4.17733 5.97756 3.7354 7.64278 4.37595 9.05177L6.19663 8.22405ZM6.74997 9.44121L6.19663 8.22405L4.37595 9.05176L4.92929 10.2689L6.74997 9.44121ZM6.74894 9.43895C6.74887 9.43879 6.74879 9.43862 6.74869 9.4384C6.74859 9.43819 6.74847 9.43792 6.74835 9.43765L4.93092 10.2725C4.93099 10.2726 4.93107 10.2728 4.93117 10.273C4.93127 10.2732 4.93139 10.2735 4.93152 10.2738L6.74894 9.43895ZM3.56766 10.8982C5.61352 15.3541 9.25345 18.8967 13.7791 20.8178L14.5606 18.9768C10.4943 17.2507 7.22347 14.0674 5.38524 10.0637L3.56766 10.8982ZM3.56646 10.8956L3.56763 10.8981L5.38527 10.0638L5.38411 10.0612L3.56646 10.8956ZM3.01044 9.67255L3.56494 10.8923L5.38562 10.0646L4.83112 8.84484L3.01044 9.67255ZM4.55427 3.85543C2.72016 5.17949 2.07425 7.61328 3.01044 9.67256L4.83112 8.84484C4.28911 7.65262 4.66306 6.24359 5.72491 5.47702L4.55427 3.85543ZM6.32756 2.57527L4.55427 3.85543L5.72491 5.47702L7.49821 4.19686L6.32756 2.57527ZM10.0775 3.07827C9.15982 1.94072 7.51261 1.71977 6.32756 2.57527L7.49821 4.19687C7.8214 3.96355 8.27064 4.02381 8.52093 4.33405L10.0775 3.07827ZM11.8726 5.30331L10.0775 3.07827L8.52093 4.33405L10.316 6.55909L11.8726 5.30331ZM11.3696 9.23943C12.6254 8.30877 12.854 6.51986 11.8726 5.30331L10.316 6.55909C10.5836 6.89088 10.5213 7.37876 10.1788 7.63258L11.3696 9.23943ZM10.7001 9.73559L11.3696 9.23943L10.1788 7.63258L9.50929 8.12873L10.7001 9.73559ZM15.6805 13.161C13.671 12.1253 12.0292 10.4835 10.9936 8.47405L9.2158 9.39027C10.442 11.7696 12.385 13.7125 14.7643 14.9388L15.6805 13.161ZM14.9151 12.7849L14.419 13.4544L16.0258 14.6453L16.522 13.9757L14.9151 12.7849ZM18.8512 12.282C17.6347 11.3005 15.8458 11.5291 14.9151 12.7849L16.522 13.9757C16.7758 13.6332 17.2637 13.5709 17.5955 13.8386L18.8512 12.282ZM21.076 14.0768L18.8512 12.282L17.5955 13.8386L19.8202 15.6334L21.076 14.0768ZM21.5783 17.8277C22.4346 16.6426 22.2139 14.9947 21.076 14.0768L19.8202 15.6334C20.1305 15.8837 20.1907 16.3331 19.9572 16.6563L21.5783 17.8277ZM20.3039 19.5914L21.5783 17.8277L19.9572 16.6563L18.6828 18.4201L20.3039 19.5914ZM14.5207 21.1484C16.574 22.0632 18.9874 21.4135 20.3039 19.5914L18.6828 18.4201C17.9206 19.475 16.5234 19.8511 15.3346 19.3215L14.5207 21.1484ZM13.7629 20.8108L14.5207 21.1484L15.3346 19.3215L14.5769 18.9839L13.7629 20.8108Z" fill="#333333" mask="url(#path-1-inside-1_60_4352)"/>
</svg>
