<svg width="24" height="24" viewBox="0 0 24 24" fill="none" xmlns="http://www.w3.org/2000/svg">
<mask id="path-1-inside-1_60_4379" fill="white">
<path fill-rule="evenodd" clip-rule="evenodd" d="M15.0215 3.34348C15.5299 3.25639 16.0992 3.22732 16.635 3.31796C17.5918 3.47984 18.4757 3.92457 19.1744 4.59133C19.6311 4.60166 20.0799 4.51169 20.477 4.38342C20.8131 4.27487 21.097 4.1438 21.296 4.04016C21.3949 3.98863 21.4713 3.94467 21.521 3.91492C21.5458 3.90006 21.5638 3.88881 21.5745 3.88202L21.5841 3.87596C21.8809 3.67823 22.2761 3.71672 22.529 3.96822C22.7819 4.21979 22.8226 4.61471 22.6264 4.91261C22.4187 5.22791 22.1303 5.78998 21.8073 6.41973C21.7565 6.51875 21.7048 6.61945 21.6525 6.72112C21.4672 7.08108 21.2772 7.4449 21.1001 7.75703C20.9889 7.95301 20.87 8.15199 20.7501 8.32393V8.59771C20.7577 9.60333 20.6424 10.6037 20.4083 11.5769C20.261 12.1893 20.0667 12.7909 19.8265 13.3763C19.2041 14.8929 18.2857 16.2704 17.1249 17.4281C15.9642 18.5859 14.5844 19.5007 13.0662 20.1193C11.5492 20.7372 9.9245 21.047 8.28665 21.0306C5.91234 21.0327 3.58798 20.3486 1.59326 19.0607C1.29945 18.871 1.17576 18.5034 1.29509 18.1747C1.41443 17.8459 1.74512 17.6433 2.09219 17.6863C2.39255 17.7235 2.69496 17.7416 2.99762 17.7406C4.08507 17.7376 5.15181 17.4973 6.12567 17.0446C5.81612 16.9037 5.52058 16.73 5.24443 16.5252C4.43271 15.9233 3.8288 15.0833 3.51673 14.1222C3.43564 13.8725 3.49108 13.5985 3.66289 13.3999C3.66597 13.3963 3.66908 13.3928 3.67221 13.3893C3.48869 13.2257 3.31696 13.0475 3.15886 12.8559C2.44754 11.9936 2.05587 10.9122 2.05009 9.79448L2.05007 9.7906L2.05008 9.7406C2.05008 9.47474 2.19083 9.22874 2.42003 9.09402C2.47813 9.05987 2.53972 9.03416 2.60307 9.01692C2.26473 8.34184 2.08879 7.59639 2.09007 6.84014C2.08968 5.98337 2.31347 5.1414 2.73923 4.3979C2.86214 4.18326 3.08297 4.04303 3.3295 4.02305C3.57603 4.00307 3.81656 4.10593 3.97242 4.29797C4.93498 5.48399 6.13626 6.45424 7.49825 7.14571C8.19839 7.50117 8.93294 7.77886 9.68874 7.9753C10.1125 8.08543 10.5429 8.17001 10.9777 8.22844C10.9585 7.50518 11.1013 6.78231 11.4011 6.11438C11.8407 5.13456 12.5932 4.32838 13.5404 3.82229C13.9416 3.60796 14.4741 3.43725 15.0215 3.34348ZM3.74335 10.891C3.873 11.2559 4.06586 11.5982 4.31592 11.9013C4.80724 12.4968 5.48919 12.9044 6.24641 13.055C6.58369 13.1221 6.83213 13.41 6.84916 13.7535C6.86618 14.0969 6.64743 14.408 6.31843 14.5081C6.04594 14.591 5.76676 14.6488 5.48441 14.6809C5.67099 14.9214 5.89047 15.1369 6.13787 15.3203C6.69906 15.7364 7.376 15.9673 8.07451 15.9807C8.39143 15.9868 8.6703 16.1915 8.77112 16.492C8.87195 16.7925 8.77296 17.124 8.52386 17.32C7.47469 18.1455 6.26149 18.7212 4.97594 19.0151C6.04142 19.3563 7.15887 19.532 8.28916 19.5306L8.29786 19.5306C9.73792 19.5455 11.1665 19.2735 12.5002 18.7301C13.8339 18.1868 15.046 17.3831 16.0656 16.3661C17.0853 15.3491 17.892 14.1391 18.4388 12.8068C18.6498 12.2925 18.8205 11.7641 18.9499 11.2262C19.1557 10.3704 19.257 9.49073 19.2501 8.60646L19.2501 8.6006V8.0706C19.2501 7.88875 19.3161 7.71309 19.436 7.57632C19.5053 7.49727 19.6264 7.31472 19.7955 7.01682C19.9561 6.73369 20.1339 6.39379 20.3188 6.0346C20.33 6.01288 20.3412 5.99104 20.3525 5.96911C19.8729 6.07325 19.3293 6.12784 18.7595 6.06626C18.579 6.04675 18.4118 5.96247 18.2887 5.82903C17.7858 5.28369 17.1162 4.92068 16.3848 4.79694C16.0602 4.74204 15.6679 4.75461 15.2748 4.82194C14.8477 4.8951 14.476 5.02312 14.2473 5.14529C13.593 5.49486 13.0733 6.05171 12.7696 6.72849C12.4659 7.40528 12.3954 8.16372 12.5692 8.88488C12.6246 9.11479 12.5683 9.35737 12.4174 9.5394C12.2664 9.72143 12.0384 9.82159 11.8022 9.80964C10.9588 9.76698 10.1243 9.63833 9.31142 9.42706C8.45152 9.20357 7.61579 8.88763 6.81921 8.48321C5.64643 7.8878 4.57838 7.11071 3.65354 6.18302C3.61135 6.39863 3.58993 6.61866 3.59008 6.8401L3.59007 6.84202C3.58903 7.39274 3.72418 7.93517 3.98349 8.42102C4.2428 8.90687 4.61822 9.32106 5.07633 9.62672C5.35436 9.81222 5.47608 10.1593 5.37483 10.4778C5.27358 10.7963 4.97378 11.0094 4.63968 11.0003C4.33708 10.9921 4.03702 10.9553 3.74335 10.891Z"/>
</mask>
<path fill-rule="evenodd" clip-rule="evenodd" d="M15.0215 3.34348C15.5299 3.25639 16.0992 3.22732 16.635 3.31796C17.5918 3.47984 18.4757 3.92457 19.1744 4.59133C19.6311 4.60166 20.0799 4.51169 20.477 4.38342C20.8131 4.27487 21.097 4.1438 21.296 4.04016C21.3949 3.98863 21.4713 3.94467 21.521 3.91492C21.5458 3.90006 21.5638 3.88881 21.5745 3.88202L21.5841 3.87596C21.8809 3.67823 22.2761 3.71672 22.529 3.96822C22.7819 4.21979 22.8226 4.61471 22.6264 4.91261C22.4187 5.22791 22.1303 5.78998 21.8073 6.41973C21.7565 6.51875 21.7048 6.61945 21.6525 6.72112C21.4672 7.08108 21.2772 7.4449 21.1001 7.75703C20.9889 7.95301 20.87 8.15199 20.7501 8.32393V8.59771C20.7577 9.60333 20.6424 10.6037 20.4083 11.5769C20.261 12.1893 20.0667 12.7909 19.8265 13.3763C19.2041 14.8929 18.2857 16.2704 17.1249 17.4281C15.9642 18.5859 14.5844 19.5007 13.0662 20.1193C11.5492 20.7372 9.9245 21.047 8.28665 21.0306C5.91234 21.0327 3.58798 20.3486 1.59326 19.0607C1.29945 18.871 1.17576 18.5034 1.29509 18.1747C1.41443 17.8459 1.74512 17.6433 2.09219 17.6863C2.39255 17.7235 2.69496 17.7416 2.99762 17.7406C4.08507 17.7376 5.15181 17.4973 6.12567 17.0446C5.81612 16.9037 5.52058 16.73 5.24443 16.5252C4.43271 15.9233 3.8288 15.0833 3.51673 14.1222C3.43564 13.8725 3.49108 13.5985 3.66289 13.3999C3.66597 13.3963 3.66908 13.3928 3.67221 13.3893C3.48869 13.2257 3.31696 13.0475 3.15886 12.8559C2.44754 11.9936 2.05587 10.9122 2.05009 9.79448L2.05007 9.7906L2.05008 9.7406C2.05008 9.47474 2.19083 9.22874 2.42003 9.09402C2.47813 9.05987 2.53972 9.03416 2.60307 9.01692C2.26473 8.34184 2.08879 7.59639 2.09007 6.84014C2.08968 5.98337 2.31347 5.1414 2.73923 4.3979C2.86214 4.18326 3.08297 4.04303 3.3295 4.02305C3.57603 4.00307 3.81656 4.10593 3.97242 4.29797C4.93498 5.48399 6.13626 6.45424 7.49825 7.14571C8.19839 7.50117 8.93294 7.77886 9.68874 7.9753C10.1125 8.08543 10.5429 8.17001 10.9777 8.22844C10.9585 7.50518 11.1013 6.78231 11.4011 6.11438C11.8407 5.13456 12.5932 4.32838 13.5404 3.82229C13.9416 3.60796 14.4741 3.43725 15.0215 3.34348ZM3.74335 10.891C3.873 11.2559 4.06586 11.5982 4.31592 11.9013C4.80724 12.4968 5.48919 12.9044 6.24641 13.055C6.58369 13.1221 6.83213 13.41 6.84916 13.7535C6.86618 14.0969 6.64743 14.408 6.31843 14.5081C6.04594 14.591 5.76676 14.6488 5.48441 14.6809C5.67099 14.9214 5.89047 15.1369 6.13787 15.3203C6.69906 15.7364 7.376 15.9673 8.07451 15.9807C8.39143 15.9868 8.6703 16.1915 8.77112 16.492C8.87195 16.7925 8.77296 17.124 8.52386 17.32C7.47469 18.1455 6.26149 18.7212 4.97594 19.0151C6.04142 19.3563 7.15887 19.532 8.28916 19.5306L8.29786 19.5306C9.73792 19.5455 11.1665 19.2735 12.5002 18.7301C13.8339 18.1868 15.046 17.3831 16.0656 16.3661C17.0853 15.3491 17.892 14.1391 18.4388 12.8068C18.6498 12.2925 18.8205 11.7641 18.9499 11.2262C19.1557 10.3704 19.257 9.49073 19.2501 8.60646L19.2501 8.6006V8.0706C19.2501 7.88875 19.3161 7.71309 19.436 7.57632C19.5053 7.49727 19.6264 7.31472 19.7955 7.01682C19.9561 6.73369 20.1339 6.39379 20.3188 6.0346C20.33 6.01288 20.3412 5.99104 20.3525 5.96911C19.8729 6.07325 19.3293 6.12784 18.7595 6.06626C18.579 6.04675 18.4118 5.96247 18.2887 5.82903C17.7858 5.28369 17.1162 4.92068 16.3848 4.79694C16.0602 4.74204 15.6679 4.75461 15.2748 4.82194C14.8477 4.8951 14.476 5.02312 14.2473 5.14529C13.593 5.49486 13.0733 6.05171 12.7696 6.72849C12.4659 7.40528 12.3954 8.16372 12.5692 8.88488C12.6246 9.11479 12.5683 9.35737 12.4174 9.5394C12.2664 9.72143 12.0384 9.82159 11.8022 9.80964C10.9588 9.76698 10.1243 9.63833 9.31142 9.42706C8.45152 9.20357 7.61579 8.88763 6.81921 8.48321C5.64643 7.8878 4.57838 7.11071 3.65354 6.18302C3.61135 6.39863 3.58993 6.61866 3.59008 6.8401L3.59007 6.84202C3.58903 7.39274 3.72418 7.93517 3.98349 8.42102C4.2428 8.90687 4.61822 9.32106 5.07633 9.62672C5.35436 9.81222 5.47608 10.1593 5.37483 10.4778C5.27358 10.7963 4.97378 11.0094 4.63968 11.0003C4.33708 10.9921 4.03702 10.9553 3.74335 10.891Z" fill="black"/>
<path d="M16.635 3.31796L16.4682 4.30395V4.30395L16.635 3.31796ZM15.0215 3.34348L15.1904 4.32912L15.0215 3.34348ZM19.1744 4.59133L18.4839 5.31476C18.6643 5.48689 18.9025 5.58544 19.1517 5.59107L19.1744 4.59133ZM20.477 4.38342L20.7843 5.33503V5.33502L20.477 4.38342ZM21.296 4.04016L21.758 4.92705V4.92705L21.296 4.04016ZM21.521 3.91492L22.0348 4.77281L22.0348 4.7728L21.521 3.91492ZM21.5745 3.88202L22.11 4.7266L22.112 4.7253L21.5745 3.88202ZM21.5841 3.87596L22.1215 4.71924C22.1272 4.71561 22.1329 4.71193 22.1385 4.70819L21.5841 3.87596ZM22.529 3.96822L21.8238 4.67726L21.8238 4.67726L22.529 3.96822ZM22.6264 4.91261L21.7913 4.36246V4.36246L22.6264 4.91261ZM21.8073 6.41973L20.9175 5.96329L20.9175 5.9633L21.8073 6.41973ZM21.6525 6.72112L20.7634 6.26344L20.7633 6.26344L21.6525 6.72112ZM21.1001 7.75703L20.2303 7.26355L20.2303 7.26356L21.1001 7.75703ZM20.7501 8.32393L19.9298 7.75191C19.8128 7.91971 19.7501 8.11936 19.7501 8.32393H20.7501ZM20.7501 8.59771H19.75L19.7501 8.60529L20.7501 8.59771ZM20.4083 11.5769L19.436 11.3431L20.4083 11.5769ZM19.8265 13.3763L18.9014 12.9966V12.9966L19.8265 13.3763ZM17.1249 17.4281L17.8311 18.1361V18.1361L17.1249 17.4281ZM13.0662 20.1193L12.6889 19.1932H12.6889L13.0662 20.1193ZM8.28665 21.0306L8.29669 20.0306L8.28579 20.0306L8.28665 21.0306ZM1.59326 19.0607L1.05083 19.9008H1.05083L1.59326 19.0607ZM1.29509 18.1747L0.355113 17.8334L0.355113 17.8334L1.29509 18.1747ZM2.09219 17.6863L1.96937 18.6787H1.96937L2.09219 17.6863ZM2.99762 17.7406L2.99481 16.7406L2.99434 16.7406L2.99762 17.7406ZM6.12567 17.0446L6.54716 17.9515C6.90129 17.7869 7.1272 17.4312 7.12566 17.0407C7.12411 16.6502 6.89539 16.2963 6.53996 16.1345L6.12567 17.0446ZM5.24443 16.5252L5.84006 15.7219H5.84006L5.24443 16.5252ZM3.51673 14.1222L2.56561 14.431H2.56561L3.51673 14.1222ZM3.66289 13.3999L4.41914 14.0542L4.41914 14.0542L3.66289 13.3999ZM3.67221 13.3893L4.41612 14.0576C4.59379 13.8598 4.68539 13.5994 4.67068 13.334C4.65597 13.0685 4.53617 12.8199 4.33774 12.6429L3.67221 13.3893ZM3.15886 12.8559L2.38749 13.4922H2.38749L3.15886 12.8559ZM2.05009 9.79448L3.05007 9.78931V9.7893L2.05009 9.79448ZM2.05007 9.7906L1.05005 9.7904L1.05008 9.79578L2.05007 9.7906ZM2.05008 9.7406L3.05008 9.7408V9.7406H2.05008ZM2.42003 9.09402L2.92676 9.95613L2.92676 9.95613L2.42003 9.09402ZM2.60307 9.01692L2.86568 9.98182C3.155 9.90308 3.39373 9.69866 3.51606 9.4249C3.63839 9.15114 3.63142 8.83693 3.49707 8.56887L2.60307 9.01692ZM2.09007 6.84014L3.09008 6.84184L3.09007 6.83967L2.09007 6.84014ZM2.73923 4.3979L3.60702 4.89483V4.89483L2.73923 4.3979ZM3.3295 4.02305L3.41027 5.01978L3.3295 4.02305ZM3.97242 4.29797L4.74888 3.66781V3.66781L3.97242 4.29797ZM7.49825 7.14571L7.95094 6.25404L7.95094 6.25404L7.49825 7.14571ZM9.68874 7.9753L9.94028 7.00745L9.94028 7.00745L9.68874 7.9753ZM10.9777 8.22844L10.8445 9.21953C11.1349 9.25856 11.4279 9.16822 11.6459 8.97238C11.8639 8.77655 11.9851 8.49493 11.9773 8.20197L10.9777 8.22844ZM11.4011 6.11438L10.4887 5.70497L10.4887 5.70497L11.4011 6.11438ZM13.5404 3.82229L14.0117 4.70429L14.0117 4.70429L13.5404 3.82229ZM4.31592 11.9013L5.08729 11.2649L4.31592 11.9013ZM3.74335 10.891L3.95729 9.91412C3.60246 9.83641 3.23339 9.95722 2.9932 10.2297C2.753 10.5022 2.67945 10.8835 2.80106 11.2258L3.74335 10.891ZM6.24641 13.055L6.0513 14.0358H6.0513L6.24641 13.055ZM6.84916 13.7535L5.85038 13.803L5.85038 13.803L6.84916 13.7535ZM6.31843 14.5081L6.60957 15.4648L6.60957 15.4648L6.31843 14.5081ZM5.48441 14.6809L5.37147 13.6873C5.0124 13.7281 4.70329 13.9595 4.56292 14.2925C4.42255 14.6255 4.47278 15.0083 4.69429 15.2939L5.48441 14.6809ZM6.13787 15.3203L6.7335 14.5171L6.7335 14.5171L6.13787 15.3203ZM8.07451 15.9807L8.05526 16.9806H8.05527L8.07451 15.9807ZM8.77112 16.492L9.71918 16.1739L9.71918 16.1739L8.77112 16.492ZM8.52386 17.32L7.90548 16.5341V16.5341L8.52386 17.32ZM4.97594 19.0151L4.75308 18.0402C4.31387 18.1406 3.99603 18.5224 3.97684 18.9725C3.95766 19.4226 4.24186 19.83 4.67095 19.9674L4.97594 19.0151ZM8.28916 19.5306L8.29038 20.5306H8.29047L8.28916 19.5306ZM8.29786 19.5306L8.30825 18.5306L8.29655 18.5306L8.29786 19.5306ZM12.5002 18.7301L12.1229 17.804H12.1229L12.5002 18.7301ZM18.4388 12.8068L17.5137 12.4271V12.4271L18.4388 12.8068ZM18.9499 11.2262L19.9221 11.46L18.9499 11.2262ZM19.2501 8.60646L18.2501 8.61037L18.2501 8.61428L19.2501 8.60646ZM19.2501 8.6006H18.2501L18.2501 8.6045L19.2501 8.6006ZM19.436 7.57632L18.6839 6.91726L18.6839 6.91727L19.436 7.57632ZM19.7955 7.01682L20.6652 7.51029V7.51029L19.7955 7.01682ZM20.3188 6.0346L19.4297 5.57689L19.4297 5.57692L20.3188 6.0346ZM20.3525 5.96911L21.242 6.42606C21.4187 6.08194 21.3812 5.66672 21.1455 5.35992C20.9098 5.05312 20.5183 4.90978 20.1403 4.99188L20.3525 5.96911ZM18.7595 6.06626L18.652 7.06047L18.652 7.06047L18.7595 6.06626ZM18.2887 5.82903L17.5536 6.50693V6.50693L18.2887 5.82903ZM16.3848 4.79694L16.5516 3.81095V3.81095L16.3848 4.79694ZM15.2748 4.82194L15.1059 3.8363V3.8363L15.2748 4.82194ZM14.2473 5.14529L14.7185 6.0273L14.7185 6.02729L14.2473 5.14529ZM12.7696 6.72849L13.6819 7.1379V7.1379L12.7696 6.72849ZM12.5692 8.88488L13.5414 8.65059V8.65059L12.5692 8.88488ZM12.4174 9.5394L13.1871 10.1778L13.1871 10.1778L12.4174 9.5394ZM11.8022 9.80964L11.8527 8.81092L11.8022 9.80964ZM9.31142 9.42706L9.05987 10.3949H9.05987L9.31142 9.42706ZM6.81921 8.48321L6.36652 9.37488H6.36652L6.81921 8.48321ZM3.65354 6.18302L4.36173 5.477C4.10063 5.2151 3.71631 5.11867 3.3625 5.22631C3.00869 5.33394 2.74317 5.62805 2.67215 5.99098L3.65354 6.18302ZM3.59008 6.8401L4.59008 6.84072L4.59008 6.83944L3.59008 6.8401ZM3.59007 6.84202L4.59007 6.84392L4.59007 6.84264L3.59007 6.84202ZM3.98349 8.42102L4.8657 7.95017V7.95016L3.98349 8.42102ZM5.07633 9.62672L5.63134 8.79487L5.63134 8.79487L5.07633 9.62672ZM5.37483 10.4778L4.42182 10.1749V10.1749L5.37483 10.4778ZM4.63968 11.0003L4.66687 10.0007H4.66687L4.63968 11.0003ZM16.8018 2.33197C16.1252 2.2175 15.4379 2.25759 14.8527 2.35783L15.1904 4.32912C15.6219 4.2552 16.0732 4.23713 16.4682 4.30395L16.8018 2.33197ZM19.8648 3.8679C19.022 3.06366 17.956 2.52723 16.8018 2.33197L16.4682 4.30395C17.2277 4.43245 17.9294 4.78548 18.4839 5.31476L19.8648 3.8679ZM20.1697 3.43182C19.8466 3.53616 19.5121 3.59871 19.197 3.59159L19.1517 5.59107C19.75 5.6046 20.3131 5.48721 20.7843 5.33503L20.1697 3.43182ZM20.834 3.15328C20.6723 3.2375 20.4407 3.34429 20.1697 3.43182L20.7843 5.33502C21.1855 5.20546 21.5217 5.0501 21.758 4.92705L20.834 3.15328ZM21.0072 3.05702C20.9726 3.07771 20.9135 3.11184 20.834 3.15328L21.758 4.92705C21.8763 4.86542 21.97 4.81164 22.0348 4.77281L21.0072 3.05702ZM21.0391 3.03745C21.0352 3.03993 21.0244 3.04672 21.0072 3.05703L22.0348 4.7728C22.0672 4.7534 22.0925 4.7377 22.11 4.7266L21.0391 3.03745ZM21.0466 3.03269L21.0371 3.03875L22.112 4.7253L22.1215 4.71924L21.0466 3.03269ZM23.2341 3.25919C22.6438 2.67206 21.7218 2.58259 21.0296 3.04373L22.1385 4.70819C22.0399 4.77388 21.9084 4.76138 21.8238 4.67726L23.2341 3.25919ZM23.4614 5.46276C23.9194 4.76765 23.8243 3.84617 23.2341 3.25919L21.8238 4.67726C21.7395 4.59341 21.7259 4.46176 21.7913 4.36246L23.4614 5.46276ZM22.697 6.87618C23.0336 6.22001 23.2915 5.72068 23.4614 5.46276L21.7913 4.36246C21.5458 4.73513 21.227 5.35994 20.9175 5.96329L22.697 6.87618ZM22.5416 7.1788C22.5943 7.07641 22.6463 6.97509 22.697 6.87617L20.9175 5.9633C20.8667 6.06241 20.8153 6.16249 20.7634 6.26344L22.5416 7.1788ZM21.9699 8.2505C22.1579 7.91904 22.356 7.53931 22.5416 7.17879L20.7633 6.26344C20.5783 6.62285 20.3965 6.97075 20.2303 7.26355L21.9699 8.2505ZM21.5703 8.89594C21.7165 8.68628 21.8532 8.45607 21.9699 8.2505L20.2303 7.26356C20.1246 7.44996 20.0234 7.61769 19.9298 7.75191L21.5703 8.89594ZM21.7501 8.59771V8.32393H19.7501V8.59771H21.7501ZM21.3805 11.8108C21.6336 10.7587 21.7583 9.67725 21.75 8.59013L19.7501 8.60529C19.7571 9.52942 19.6511 10.4487 19.436 11.3431L21.3805 11.8108ZM20.7516 13.7559C21.0113 13.1231 21.2213 12.4728 21.3805 11.8108L19.436 11.3431C19.3007 11.9058 19.1221 12.4586 18.9014 12.9966L20.7516 13.7559ZM17.8311 18.1361C19.0859 16.8845 20.0787 15.3955 20.7516 13.7559L18.9014 12.9966C18.3294 14.3903 17.4854 15.6562 16.4187 16.7201L17.8311 18.1361ZM13.4434 21.0453C15.0847 20.3767 16.5763 19.3877 17.8311 18.1361L16.4187 16.7201C15.3521 17.784 14.0841 18.6247 12.6889 19.1932L13.4434 21.0453ZM8.27663 22.0306C10.0472 22.0483 11.8036 21.7134 13.4434 21.0453L12.6889 19.1932C11.2949 19.7611 9.80181 20.0457 8.29668 20.0307L8.27663 22.0306ZM1.05083 19.9008C3.20746 21.2932 5.72049 22.0328 8.28752 22.0306L8.28579 20.0306C6.10419 20.0325 3.96849 19.404 2.13568 18.2206L1.05083 19.9008ZM0.355113 17.8334C0.0766613 18.6005 0.365293 19.4582 1.05083 19.9008L2.13568 18.2206C2.23362 18.2838 2.27485 18.4063 2.23507 18.5159L0.355113 17.8334ZM2.21502 16.6939C1.40518 16.5936 0.633565 17.0664 0.355113 17.8334L2.23507 18.5159C2.19529 18.6255 2.08506 18.693 1.96937 18.6787L2.21502 16.6939ZM2.99434 16.7406C2.73384 16.7415 2.47354 16.7258 2.21502 16.6939L1.96937 18.6787C2.31156 18.7211 2.65609 18.7417 3.0009 18.7406L2.99434 16.7406ZM5.70417 16.1378C4.86069 16.5299 3.93672 16.738 2.99481 16.7406L3.00042 18.7406C4.23341 18.7371 5.44292 18.4647 6.54716 17.9515L5.70417 16.1378ZM4.6488 17.3285C4.98176 17.5754 5.33812 17.7849 5.71137 17.9548L6.53996 16.1345C6.29412 16.0226 6.0594 15.8846 5.84006 15.7219L4.6488 17.3285ZM2.56561 14.431C2.94189 15.5899 3.67006 16.6027 4.6488 17.3285L5.84006 15.7219C5.19536 15.2439 4.71571 14.5768 4.46786 13.8134L2.56561 14.431ZM2.90665 12.7456C2.50575 13.209 2.37639 13.8483 2.56561 14.431L4.46786 13.8134C4.49489 13.8966 4.47641 13.988 4.41914 14.0542L2.90665 12.7456ZM2.9283 12.721C2.92158 12.7285 2.91431 12.7367 2.90665 12.7456L4.41914 14.0542C4.41762 14.0559 4.41657 14.0571 4.41612 14.0576L2.9283 12.721ZM2.38749 13.4922C2.57816 13.7234 2.7853 13.9383 3.00669 14.1357L4.33774 12.6429C4.19207 12.5131 4.05575 12.3716 3.93023 12.2195L2.38749 13.4922ZM1.0501 9.79965C1.05707 11.1478 1.52951 12.4523 2.38749 13.4922L3.93023 12.2195C3.36558 11.535 3.05466 10.6766 3.05007 9.78931L1.0501 9.79965ZM1.05008 9.79578L1.0501 9.79966L3.05007 9.7893L3.05005 9.78542L1.05008 9.79578ZM1.05008 9.7404L1.05007 9.7904L3.05007 9.7908L3.05008 9.7408L1.05008 9.7404ZM1.91331 8.23191C1.3785 8.54626 1.05008 9.12025 1.05008 9.7406H3.05008C3.05008 9.82922 3.00316 9.91122 2.92676 9.95613L1.91331 8.23191ZM2.34045 8.05202C2.19245 8.0923 2.04867 8.15235 1.9133 8.23191L2.92676 9.95613C2.90759 9.96739 2.88698 9.97602 2.86568 9.98182L2.34045 8.05202ZM1.09008 6.83844C1.08853 7.75095 1.30082 8.65041 1.70906 9.46497L3.49707 8.56887C3.22865 8.03327 3.08905 7.44184 3.09007 6.84184L1.09008 6.83844ZM1.87145 3.90096C1.35897 4.79589 1.08959 5.80934 1.09008 6.8406L3.09007 6.83967C3.08976 6.1574 3.26797 5.48691 3.60702 4.89483L1.87145 3.90096ZM3.24874 3.02632C2.6735 3.07293 2.15824 3.40015 1.87145 3.90096L3.60702 4.89483C3.56605 4.96638 3.49244 5.01312 3.41027 5.01978L3.24874 3.02632ZM4.74888 3.66781C4.3852 3.2197 3.82397 2.97971 3.24874 3.02632L3.41027 5.01978C3.32809 5.02644 3.24791 4.99216 3.19596 4.92814L4.74888 3.66781ZM7.95094 6.25404C6.71402 5.62607 5.62305 4.74491 4.74888 3.66781L3.19596 4.92814C4.2469 6.22306 5.5585 7.28241 7.04556 8.03738L7.95094 6.25404ZM9.94028 7.00745C9.25388 6.82905 8.58679 6.57686 7.95094 6.25404L7.04556 8.03738C7.80999 8.42547 8.61199 8.72867 9.43719 8.94314L9.94028 7.00745ZM11.1108 7.23735C10.716 7.18429 10.3251 7.10747 9.94028 7.00745L9.43719 8.94314C9.89984 9.06339 10.3698 9.15574 10.8445 9.21953L11.1108 7.23735ZM10.4887 5.70497C10.1272 6.51064 9.95491 7.38256 9.978 8.25491L11.9773 8.20197C11.9621 7.62781 12.0755 7.05399 12.3134 6.52379L10.4887 5.70497ZM13.0692 2.94028C11.9267 3.55072 11.019 4.52312 10.4887 5.70497L12.3134 6.52379C12.6624 5.74599 13.2597 5.10603 14.0117 4.70429L13.0692 2.94028ZM14.8527 2.35783C14.2251 2.46534 13.5853 2.66451 13.0692 2.94028L14.0117 4.70429C14.2978 4.5514 14.7231 4.40915 15.1904 4.32912L14.8527 2.35783ZM5.08729 11.2649C4.91188 11.0523 4.77659 10.8122 4.68564 10.5562L2.80106 11.2258C2.9694 11.6996 3.21985 12.1441 3.54455 12.5377L5.08729 11.2649ZM6.44152 12.0742C5.91033 11.9686 5.43195 11.6827 5.08729 11.2649L3.54455 12.5377C4.18253 13.311 5.06805 13.8402 6.0513 14.0358L6.44152 12.0742ZM7.84793 13.704C7.80821 12.9025 7.22851 12.2308 6.44151 12.0742L6.0513 14.0358C5.93887 14.0134 5.85606 13.9175 5.85038 13.803L7.84793 13.704ZM6.60957 15.4648C7.37723 15.2312 7.88765 14.5054 7.84793 13.704L5.85038 13.803C5.84471 13.6885 5.91762 13.5848 6.02729 13.5514L6.60957 15.4648ZM5.59734 15.6745C5.94002 15.6356 6.27885 15.5654 6.60957 15.4648L6.02729 13.5514C5.81302 13.6166 5.5935 13.6621 5.37147 13.6873L5.59734 15.6745ZM6.7335 14.5171C6.55972 14.3882 6.40558 14.2369 6.27452 14.068L4.69429 15.2939C4.93639 15.6059 5.22121 15.8855 5.54224 16.1236L6.7335 14.5171ZM8.09376 14.9809C7.60314 14.9715 7.12767 14.8093 6.7335 14.5171L5.54224 16.1236C6.27045 16.6636 7.14887 16.9631 8.05526 16.9806L8.09376 14.9809ZM9.71918 16.1739C9.48392 15.4727 8.83324 14.9952 8.09376 14.9809L8.05527 16.9806C7.94962 16.9785 7.85667 16.9103 7.82306 16.8101L9.71918 16.1739ZM9.14223 18.1059C9.72348 17.6485 9.95444 16.8751 9.71918 16.1739L7.82306 16.8101C7.78945 16.71 7.82245 16.5995 7.90548 16.5341L9.14223 18.1059ZM5.19879 19.9899C6.62762 19.6633 7.97609 19.0235 9.14223 18.1059L7.90548 16.5341C6.97329 17.2676 5.89535 17.7791 4.75308 18.0402L5.19879 19.9899ZM8.28794 18.5306C7.26211 18.5319 6.24795 18.3724 5.28093 18.0627L4.67095 19.9674C5.83489 20.3402 7.05562 20.5321 8.29038 20.5306L8.28794 18.5306ZM8.29655 18.5306L8.28785 18.5306L8.29047 20.5306L8.29918 20.5306L8.29655 18.5306ZM12.1229 17.804C10.9123 18.2972 9.61548 18.5442 8.30825 18.5306L8.28748 20.5305C9.86036 20.5469 11.4208 20.2497 12.8775 19.6562L12.1229 17.804ZM15.3594 15.6581C14.4339 16.5813 13.3336 17.3108 12.1229 17.804L12.8775 19.6562C14.3343 19.0627 15.6581 18.1849 16.7718 17.0741L15.3594 15.6581ZM17.5137 12.4271C17.0173 13.6365 16.285 14.7349 15.3594 15.6581L16.7718 17.0741C17.8855 15.9633 18.7667 14.6416 19.3639 13.1864L17.5137 12.4271ZM17.9776 10.9923C17.8601 11.4806 17.7052 11.9603 17.5137 12.4271L19.3639 13.1864C19.5944 12.6248 19.7808 12.0475 19.9221 11.46L17.9776 10.9923ZM18.2501 8.61428C18.2564 9.41697 18.1644 10.2155 17.9776 10.9923L19.9221 11.46C20.147 10.5253 20.2576 9.56448 20.2501 8.59865L18.2501 8.61428ZM18.2501 8.6045L18.2501 8.61037L20.2501 8.60256L20.2501 8.5967L18.2501 8.6045ZM18.2501 8.0706V8.6006H20.2501V8.0706H18.2501ZM18.6839 6.91727C18.4042 7.23641 18.2501 7.64628 18.2501 8.0706H20.2501C20.2501 8.13121 20.2281 8.18977 20.1881 8.23536L18.6839 6.91727ZM18.9257 6.52334C18.8479 6.6605 18.7856 6.76302 18.739 6.83499C18.6869 6.91542 18.6704 6.93271 18.6839 6.91726L20.1881 8.23537C20.3321 8.07104 20.4972 7.8065 20.6652 7.51029L18.9257 6.52334ZM19.4297 5.57692C19.245 5.93562 19.0754 6.25957 18.9257 6.52334L20.6652 7.51029C20.8368 7.20781 21.0228 6.85195 21.2079 6.49228L19.4297 5.57692ZM19.463 5.51216C19.4518 5.53386 19.4407 5.55544 19.4297 5.57689L21.2079 6.49231C21.2192 6.47032 21.2306 6.44823 21.242 6.42606L19.463 5.51216ZM18.652 7.06047C19.3512 7.13603 20.005 7.06788 20.5647 6.94633L20.1403 4.99188C19.7408 5.07862 19.3074 5.11965 18.8669 5.07205L18.652 7.06047ZM17.5536 6.50693C17.8407 6.81829 18.231 7.01496 18.652 7.06047L18.8669 5.07205C18.9271 5.07855 18.9828 5.10664 19.0239 5.15112L17.5536 6.50693ZM16.218 5.78293C16.731 5.86974 17.2008 6.12438 17.5536 6.50693L19.0239 5.15112C18.3709 4.443 17.5013 3.97163 16.5516 3.81095L16.218 5.78293ZM15.4436 5.80759C15.7599 5.75342 16.0343 5.75185 16.218 5.78293L16.5516 3.81095C16.0862 3.73222 15.5759 3.7558 15.1059 3.8363L15.4436 5.80759ZM14.7185 6.02729C14.8322 5.96655 15.0967 5.867 15.4436 5.80759L15.1059 3.8363C14.5986 3.9232 14.1197 4.07968 13.7761 4.26329L14.7185 6.02729ZM13.6819 7.1379C13.895 6.66314 14.2596 6.27252 14.7185 6.0273L13.7761 4.26329C12.9265 4.71721 12.2516 5.44027 11.8572 6.31908L13.6819 7.1379ZM13.5414 8.65059C13.4194 8.1447 13.4689 7.61266 13.6819 7.1379L11.8572 6.31908C11.4629 7.1979 11.3714 8.18274 11.597 9.11917L13.5414 8.65059ZM13.1871 10.1778C13.5393 9.75307 13.6707 9.18705 13.5414 8.65059L11.597 9.11917C11.5786 9.04253 11.5973 8.96168 11.6476 8.901L13.1871 10.1778ZM11.7517 10.8084C12.3028 10.8362 12.8348 10.6025 13.1871 10.1778L11.6477 8.901C11.698 8.84032 11.774 8.80694 11.8527 8.81092L11.7517 10.8084ZM9.05987 10.3949C9.93835 10.6232 10.8402 10.7623 11.7517 10.8084L11.8527 8.81092C11.0774 8.7717 10.3102 8.65344 9.56296 8.45922L9.05987 10.3949ZM6.36652 9.37488C7.22739 9.81193 8.13057 10.1534 9.05987 10.3949L9.56296 8.45922C8.77246 8.25377 8.00419 7.96332 7.2719 7.59154L6.36652 9.37488ZM2.94534 6.88903C3.94483 7.8916 5.09908 8.73141 6.36652 9.37488L7.2719 7.59154C6.19378 7.04419 5.21193 6.32982 4.36173 5.477L2.94534 6.88903ZM4.59008 6.83944C4.58997 6.68293 4.60511 6.52743 4.63493 6.37505L2.67215 5.99098C2.61759 6.26982 2.58989 6.55438 2.59008 6.84077L4.59008 6.83944ZM4.59007 6.84264L4.59008 6.84072L2.59008 6.83948L2.59007 6.8414L4.59007 6.84264ZM4.8657 7.95016C4.68403 7.60978 4.58934 7.22975 4.59007 6.84392L2.59008 6.84013C2.58872 7.55573 2.76433 8.26056 3.10128 8.89188L4.8657 7.95016ZM5.63134 8.79487C5.31039 8.58073 5.04737 8.29055 4.8657 7.95017L3.10128 8.89188C3.43823 9.52319 3.92605 10.0614 4.52132 10.4586L5.63134 8.79487ZM6.32784 10.7808C6.5641 10.0376 6.28006 9.2277 5.63134 8.79487L4.52132 10.4586C4.42865 10.3967 4.38807 10.281 4.42182 10.1749L6.32784 10.7808ZM4.61248 12C5.39205 12.0212 6.09158 11.524 6.32784 10.7808L4.42182 10.1749C4.45558 10.0687 4.55551 9.99766 4.66687 10.0007L4.61248 12ZM3.52941 11.8678C3.88427 11.9455 4.24685 11.99 4.61248 12L4.66687 10.0007C4.42732 9.99417 4.18977 9.96504 3.95729 9.91412L3.52941 11.8678Z" fill="#333333" mask="url(#path-1-inside-1_60_4379)"/>
</svg>
