<svg width="24" height="24" viewBox="0 0 24 24" fill="none" xmlns="http://www.w3.org/2000/svg">
<mask id="path-1-inside-1_60_4359" fill="white">
<path fill-rule="evenodd" clip-rule="evenodd" d="M12 4.75C7.99594 4.75 4.75 7.99594 4.75 12C4.75 16.0041 7.99594 19.25 12 19.25C16.0041 19.25 19.25 16.0041 19.25 12C19.25 7.99594 16.0041 4.75 12 4.75ZM3.25 12C3.25 7.16751 7.16751 3.25 12 3.25C16.8325 3.25 20.75 7.16751 20.75 12C20.75 16.8325 16.8325 20.75 12 20.75C7.16751 20.75 3.25 16.8325 3.25 12Z"/>
<path fill-rule="evenodd" clip-rule="evenodd" d="M10.8498 9.30875C9.91622 10.0768 9.29253 11.1571 9.09417 12.3496L8.65623 14.9824C8.42881 16.3496 10.0186 17.2675 11.0889 16.3869L13.15 14.6912C14.0836 13.9232 14.7073 12.8429 14.9056 11.6504L15.3436 9.01756C15.571 7.65035 13.9813 6.73251 12.9109 7.61307L10.8498 9.30875ZM12 10.5C11.1716 10.5 10.5 11.1716 10.5 12C10.5 12.8284 11.1716 13.5 12 13.5C12.8284 13.5 13.5 12.8284 13.5 12C13.5 11.1716 12.8284 10.5 12 10.5Z"/>
</mask>
<path fill-rule="evenodd" clip-rule="evenodd" d="M12 4.75C7.99594 4.75 4.75 7.99594 4.75 12C4.75 16.0041 7.99594 19.25 12 19.25C16.0041 19.25 19.25 16.0041 19.25 12C19.25 7.99594 16.0041 4.75 12 4.75ZM3.25 12C3.25 7.16751 7.16751 3.25 12 3.25C16.8325 3.25 20.75 7.16751 20.75 12C20.75 16.8325 16.8325 20.75 12 20.75C7.16751 20.75 3.25 16.8325 3.25 12Z" fill="black"/>
<path fill-rule="evenodd" clip-rule="evenodd" d="M10.8498 9.30875C9.91622 10.0768 9.29253 11.1571 9.09417 12.3496L8.65623 14.9824C8.42881 16.3496 10.0186 17.2675 11.0889 16.3869L13.15 14.6912C14.0836 13.9232 14.7073 12.8429 14.9056 11.6504L15.3436 9.01756C15.571 7.65035 13.9813 6.73251 12.9109 7.61307L10.8498 9.30875ZM12 10.5C11.1716 10.5 10.5 11.1716 10.5 12C10.5 12.8284 11.1716 13.5 12 13.5C12.8284 13.5 13.5 12.8284 13.5 12C13.5 11.1716 12.8284 10.5 12 10.5Z" fill="#333333"/>
<path d="M9.09417 12.3496L8.10772 12.1855L8.10772 12.1855L9.09417 12.3496ZM10.8498 9.30875L11.4851 10.081L11.4851 10.081L10.8498 9.30875ZM8.65623 14.9824L9.64268 15.1465L9.64268 15.1465L8.65623 14.9824ZM11.0889 16.3869L10.4536 15.6146L10.4536 15.6146L11.0889 16.3869ZM13.15 14.6912L12.5147 13.919L12.5147 13.919L13.15 14.6912ZM14.9056 11.6504L13.9192 11.4863L13.9192 11.4863L14.9056 11.6504ZM15.3436 9.01756L16.33 9.18165L16.33 9.18164L15.3436 9.01756ZM12.9109 7.61307L13.5462 8.38531L13.5462 8.38531L12.9109 7.61307ZM5.75 12C5.75 8.54822 8.54822 5.75 12 5.75V3.75C7.44365 3.75 3.75 7.44365 3.75 12H5.75ZM12 18.25C8.54822 18.25 5.75 15.4518 5.75 12H3.75C3.75 16.5563 7.44365 20.25 12 20.25V18.25ZM18.25 12C18.25 15.4518 15.4518 18.25 12 18.25V20.25C16.5563 20.25 20.25 16.5563 20.25 12H18.25ZM12 5.75C15.4518 5.75 18.25 8.54822 18.25 12H20.25C20.25 7.44365 16.5563 3.75 12 3.75V5.75ZM12 2.25C6.61522 2.25 2.25 6.61522 2.25 12H4.25C4.25 7.71979 7.71979 4.25 12 4.25V2.25ZM21.75 12C21.75 6.61522 17.3848 2.25 12 2.25V4.25C16.2802 4.25 19.75 7.71979 19.75 12H21.75ZM12 21.75C17.3848 21.75 21.75 17.3848 21.75 12H19.75C19.75 16.2802 16.2802 19.75 12 19.75V21.75ZM2.25 12C2.25 17.3848 6.61522 21.75 12 21.75V19.75C7.71979 19.75 4.25 16.2802 4.25 12H2.25ZM10.0806 12.5136C10.2393 11.5596 10.7383 10.6954 11.4851 10.081L10.2145 8.5365C9.09419 9.45815 8.34576 10.7545 8.10772 12.1855L10.0806 12.5136ZM9.64268 15.1465L10.0806 12.5136L8.10772 12.1855L7.66979 14.8183L9.64268 15.1465ZM10.4536 15.6146C10.0968 15.9082 9.56687 15.6022 9.64268 15.1465L7.66979 14.8183C7.29076 17.097 9.94032 18.6267 11.7242 17.1591L10.4536 15.6146ZM12.5147 13.919L10.4536 15.6146L11.7242 17.1591L13.7853 15.4635L12.5147 13.919ZM13.9192 11.4863C13.7605 12.4403 13.2615 13.3045 12.5147 13.919L13.7853 15.4635C14.9056 14.5418 15.654 13.2455 15.8921 11.8145L13.9192 11.4863ZM14.3571 8.85348L13.9192 11.4863L15.8921 11.8145L16.33 9.18165L14.3571 8.85348ZM13.5462 8.38531C13.903 8.0918 14.4329 8.39774 14.3571 8.85348L16.33 9.18164C16.709 6.90295 14.0595 5.37322 12.2756 6.84082L13.5462 8.38531ZM11.4851 10.081L13.5462 8.38531L12.2756 6.84082L10.2145 8.5365L11.4851 10.081ZM11.5 12C11.5 11.7239 11.7239 11.5 12 11.5V9.5C10.6193 9.5 9.5 10.6193 9.5 12H11.5ZM12 12.5C11.7239 12.5 11.5 12.2761 11.5 12H9.5C9.5 13.3807 10.6193 14.5 12 14.5V12.5ZM12.5 12C12.5 12.2761 12.2761 12.5 12 12.5V14.5C13.3807 14.5 14.5 13.3807 14.5 12H12.5ZM12 11.5C12.2761 11.5 12.5 11.7239 12.5 12H14.5C14.5 10.6193 13.3807 9.5 12 9.5V11.5Z" fill="#333333" mask="url(#path-1-inside-1_60_4359)"/>
</svg>
